<?xml version="1.0" encoding="UTF-8" standalone="no"?>
<svg
   xmlns:dc="http://purl.org/dc/elements/1.1/"
   xmlns:cc="http://creativecommons.org/ns#"
   xmlns:rdf="http://www.w3.org/1999/02/22-rdf-syntax-ns#"
   xmlns:svg="http://www.w3.org/2000/svg"
   xmlns="http://www.w3.org/2000/svg"
   xmlns:xlink="http://www.w3.org/1999/xlink"
   xmlns:sodipodi="http://sodipodi.sourceforge.net/DTD/sodipodi-0.dtd"
   xmlns:inkscape="http://www.inkscape.org/namespaces/inkscape"
   inkscape:version="1.0beta2 (2b71d25, 2019-12-03)"
   height="41.716595"
   width="220"
   sodipodi:docname="certcode.svg"
   id="svg119"
   version="1.1"
   class="iconLeft"
   viewBox="0 0 220 41.716595"
   data-v-fde0c5aa="">
  <metadata
     id="metadata123">
    <rdf:RDF>
      <cc:Work
         rdf:about="">
        <dc:format>image/svg+xml</dc:format>
        <dc:type
           rdf:resource="http://purl.org/dc/dcmitype/StillImage" />
        <dc:title></dc:title>
      </cc:Work>
    </rdf:RDF>
  </metadata>
  <sodipodi:namedview
     inkscape:current-layer="svg119"
     inkscape:window-maximized="0"
     inkscape:window-y="118"
     inkscape:window-x="114"
     inkscape:cy="125.54948"
     inkscape:cx="-50.477941"
     inkscape:zoom="0.90666667"
     fit-margin-bottom="0"
     fit-margin-right="0"
     fit-margin-left="0"
     fit-margin-top="0"
     showgrid="false"
     id="namedview121"
     inkscape:window-height="820"
     inkscape:window-width="1208"
     inkscape:pageshadow="2"
     inkscape:pageopacity="0"
     guidetolerance="10"
     gridtolerance="10"
     objecttolerance="10"
     borderopacity="1"
     inkscape:document-rotation="0"
     bordercolor="#666666"
     pagecolor="#ffffff" />
  <!---->
  <defs
     id="defs98"
     data-v-fde0c5aa="">
    <!---->
    <linearGradient
       gradientUnits="userSpaceOnUse"
       y2="0"
       x2="32"
       y1="0"
       x1="0"
       id="linearGradient131"
       xlink:href="#9f668706-23b5-4dbe-8d74-b00ed0513c46"
       inkscape:collect="always" />
    <linearGradient
       gradientUnits="userSpaceOnUse"
       y2="9.9619999"
       x2="22.038"
       y1="9.9619999"
       x1="9.9619999"
       id="linearGradient133"
       xlink:href="#9f668706-23b5-4dbe-8d74-b00ed0513c46"
       inkscape:collect="always" />
    <linearGradient
       gradientUnits="userSpaceOnUse"
       y2="0"
       x2="32"
       y1="0"
       x1="0"
       id="linearGradient135"
       xlink:href="#9f668706-23b5-4dbe-8d74-b00ed0513c46"
       inkscape:collect="always" />
  </defs>
  <defs
     id="defs102"
     data-v-fde0c5aa="">
    <!---->
  </defs>
  <g
     transform="matrix(2.7292504,0,0,2.7292504,53.406554,-3.3638)"
     fill="#000000"
     id="9ffeb86b-d623-4eb9-8de3-4197ffd782b4"
     data-v-fde0c5aa="">
    <path
       inkscape:connector-curvature="0"
       id="path104"
       d="M 0.48,7.76 V 10 c 0,2.6 1.65,3.97 4.06,3.97 2.59,0 3.86,-1.38 3.86,-3.55 V 10.08 H 6.55 v 0.34 c 0,1.1 -0.54,1.87 -2.01,1.87 -1.45,0 -2.22,-0.89 -2.22,-2.24 V 7.7 c 0,-1.23 0.83,-2.24 2.22,-2.24 1.34,0 2.01,0.76 2.01,1.88 V 7.67 H 8.4 V 7.34 C 8.4,5.15 7.01,3.78 4.54,3.78 2.06,3.78 0.48,5.32 0.48,7.76 Z m 8.79,2.49 c 0,2.15 1.5,3.72 3.57,3.72 1.86,0 2.67,-0.98 3.15,-1.71 L 14.48,11.4 c -0.24,0.49 -0.69,1.03 -1.67,1.03 -1.01,0 -1.67,-0.71 -1.71,-1.61 h 5.14 v -0.68 c 0,-2.09 -1.41,-3.5 -3.43,-3.5 -2.04,0 -3.54,1.51 -3.54,3.61 z m 1.85,-0.66 c 0.11,-0.83 0.68,-1.41 1.68,-1.41 0.91,0 1.52,0.56 1.62,1.41 z M 19.24,6.83 H 17.5 v 6.95 h 1.76 v -3.9 c 0,-0.98 0.65,-1.45 1.54,-1.45 h 1.04 V 6.8 h -0.7 c -0.88,0 -1.47,0.27 -1.74,1.04 h -0.16 z m 2.94,0 v 1.54 h 1.76 v 4.06 c 0,0.79 0.59,1.35 1.37,1.35 h 1.91 V 12.24 H 26.1 c -0.26,0 -0.4,-0.14 -0.4,-0.42 V 8.37 h 1.91 V 6.83 H 25.7 V 4.68 h -1.76 v 2.15 z m 6.38,0.93 V 10 c 0,2.6 1.65,3.97 4.06,3.97 2.59,0 3.86,-1.38 3.86,-3.55 v -0.34 h -1.84 v 0.34 c 0,1.1 -0.55,1.87 -2.02,1.87 -1.44,0 -2.21,-0.89 -2.21,-2.24 V 7.7 c 0,-1.23 0.82,-2.24 2.21,-2.24 1.34,0 2.02,0.76 2.02,1.88 v 0.33 h 1.84 V 7.34 c 0,-2.19 -1.38,-3.56 -3.86,-3.56 -2.48,0 -4.06,1.54 -4.06,3.98 z m 8.79,2.54 c 0,2.19 1.6,3.67 3.64,3.67 2.05,0 3.64,-1.48 3.64,-3.67 0,-2.18 -1.59,-3.66 -3.64,-3.66 -2.04,0 -3.64,1.48 -3.64,3.66 z m 1.77,0 c 0,-1.23 0.75,-2.04 1.87,-2.04 1.12,0 1.88,0.81 1.88,2.04 0,1.24 -0.76,2.05 -1.88,2.05 -1.12,0 -1.87,-0.81 -1.87,-2.05 z M 52.81,3.98 H 51.04 V 7.81 H 50.88 C 50.51,7.22 49.9,6.64 48.66,6.64 c -1.73,0 -3.19,1.54 -3.19,3.66 0,2.13 1.46,3.67 3.19,3.67 1.24,0 1.85,-0.59 2.22,-1.17 h 0.19 v 0.98 h 1.74 z M 49.14,8.2 c 1.09,0 1.9,0.79 1.9,2.1 0,1.32 -0.81,2.1 -1.9,2.1 -1.06,0 -1.9,-0.75 -1.9,-2.1 0,-1.34 0.84,-2.1 1.9,-2.1 z m 4.93,2.05 c 0,2.15 1.5,3.72 3.57,3.72 1.86,0 2.67,-0.98 3.15,-1.71 L 59.28,11.4 c -0.24,0.49 -0.69,1.03 -1.67,1.03 -1.01,0 -1.67,-0.71 -1.71,-1.61 h 5.14 v -0.68 c 0,-2.09 -1.41,-3.5 -3.43,-3.5 -2.04,0 -3.54,1.51 -3.54,3.61 z m 1.85,-0.66 c 0.11,-0.83 0.68,-1.41 1.68,-1.41 0.91,0 1.52,0.56 1.62,1.41 z" />
  </g>
  <defs
     id="defs112"
     data-v-fde0c5aa="">
    <linearGradient
       y2="0"
       x2="1"
       y1="0"
       x1="0"
       id="9f668706-23b5-4dbe-8d74-b00ed0513c46"
       gradientTransform="rotate(25)"
       data-v-fde0c5aa="">
      <stop
         id="stop107"
         stop-opacity="1"
         stop-color="#920DE9"
         offset="0%"
         data-v-fde0c5aa="" />
      <stop
         id="stop109"
         stop-opacity="1"
         stop-color="#1536F1"
         offset="100%"
         data-v-fde0c5aa="" />
    </linearGradient>
  </defs>
  <g
     style="fill:url(#linearGradient135)"
     transform="scale(1.3036436)"
     fill="url(#9f668706-23b5-4dbe-8d74-b00ed0513c46)"
     stroke="none"
     id="9a06ce45-829c-41dc-afce-e47b0a2f516d"
     data-v-fde0c5aa="">
    <path
       inkscape:connector-curvature="0"
       style="fill:url(#linearGradient131)"
       id="path114"
       d="M 29.625,1 26.526,4.172 H 4.054 V 27.829 H 26.526 L 29.625,31 H 1 V 1 H 29.625 M 32,0 H 0 V 32 H 32 L 26.946,26.828 H 5.054 V 5.172 h 21.893 z" />
    <path
       inkscape:connector-curvature="0"
       style="fill:url(#linearGradient133)"
       id="path116"
       d="M 21.038,10.962 V 21.038 H 10.962 V 10.962 h 10.076 m 1,-1 H 9.962 v 12.076 h 12.076 z" />
  </g>
  <!---->
</svg>
